<?xml version="1.0" encoding="UTF-8"?>
<svg id="Layer_2" data-name="Layer 2" xmlns="http://www.w3.org/2000/svg" viewBox="0 0 593.11 69.08">
  <defs>
    <style>
      .cls-1 {
        stroke-width: 0px;
      }
    </style>
  </defs>
  <g id="Layer_1-2" data-name="Layer 1">
    <g>
      <path class="cls-1" d="m53.19,1.21v11.87h-27.35c-10.76,0-13.98,5.13-13.98,11.46v6.44h40.93v11.26H11.87v26.85H0V24.64C0,11.06,7.04,1.21,25.04,1.21h28.16Z"/>
      <path class="cls-1" d="m80.95,1.21v44.35c0,6.54,3.22,11.66,13.88,11.66h26.35v11.87h-27.05c-18,0-25.04-9.85-25.04-23.43V1.21h11.87Z"/>
      <path class="cls-1" d="m141.59,69.08h-13.07l23.83-60.33c2.51-6.34,7.14-8.75,14.28-8.75s11.66,2.41,14.08,8.75l22.93,60.33h-13.17l-20.61-54.6c-.6-1.61-1.71-2.31-3.32-2.31s-2.71.7-3.42,2.31l-21.52,54.6Z"/>
      <path class="cls-1" d="m255.52,1.21v11.87h-19.81v56.01h-11.97V13.07h-19.81V1.21h51.58Z"/>
      <path class="cls-1" d="m335.17,1.21c15.28,0,21.82,9.45,21.82,20.31,0,8.45-4.02,17.5-14.38,20.41l15.79,27.15h-13.17l-15.49-26.25h-17.7c-1.11,0-1.71.5-1.71,1.71v24.54h-11.87v-26.85c0-7.64,3.22-10.76,10.66-10.76h26.45c6.74,0,9.45-4.63,9.45-9.45s-2.92-8.95-9.45-8.95h-37.21V1.21h36.8Z"/>
      <path class="cls-1" d="m408.78,1.21c19.71,0,30.67,11.26,30.67,34.09s-10.86,33.79-30.67,33.79h-9.25c-19.81,0-30.67-11.06-30.67-33.79S379.82,1.21,399.53,1.21h9.25Zm-9.25,11.87c-13.07,0-18.8,6.64-18.8,22.22s5.63,21.92,18.8,21.92h9.25c13.07,0,18.7-6.44,18.7-22.02s-5.63-22.12-18.7-22.12h-9.25Z"/>
      <path class="cls-1" d="m493.35,1.21c19.71,0,30.67,11.26,30.67,34.09s-10.86,33.79-30.67,33.79h-9.25c-19.81,0-30.67-11.06-30.67-33.79S464.39,1.21,484.1,1.21h9.25Zm-9.25,11.87c-13.07,0-18.8,6.64-18.8,22.22s5.63,21.92,18.8,21.92h9.25c13.07,0,18.7-6.44,18.7-22.02s-5.63-22.12-18.7-22.12h-9.25Z"/>
      <path class="cls-1" d="m593.11,1.21v11.87h-27.35c-10.76,0-13.98,5.13-13.98,11.46v6.44h40.93v11.26h-40.93v26.85h-11.87V24.64c0-13.58,7.04-23.43,25.04-23.43h28.16Z"/>
    </g>
  </g>
</svg>

